<svg id="Layer_1" data-name="Layer 1" xmlns="http://www.w3.org/2000/svg" viewBox="0 0 1876.22 1892.39"><defs><style>.cls-1{fill:#1fd14a;}</style></defs><title>Artboard 2 copy 4</title><path class="cls-1" d="M709.4,1458v33.53h59.68a13.53,13.53,0,0,1,0,27H622.49a13.53,13.53,0,0,1,0-27h59.86V1458H578.5a13.53,13.53,0,1,1,0-27h22.71V1146.37h0v-6.31a13.82,13.82,0,0,1,3.79-9.55h0l77.35-79.7V891.24a13.53,13.53,0,0,1,27,0v159.57l77.17,79.7a13.67,13.67,0,0,1,3.78,10.09v5.77h.18v283.27a3.51,3.51,0,0,1-.18,1.26h22.72a13.53,13.53,0,0,1,0,27H709.4Zm8.83-52.29a13.53,13.53,0,0,1,0-27.05h45.26v-42.37H718.23a13.53,13.53,0,0,1,0-27h45.26v-42.37H718.23a13.53,13.53,0,0,1,0-27h45.26v-42.19H718.23a13.52,13.52,0,0,1,0-27h45.26v-24.17h0v-.9l-67.62-69.78-67.61,69.78v.9h0v283.27a1.36,1.36,0,0,0,.36.72v.18c.18.18.54.18.72.36H762.22c.37-.18.55-.18.91-.36.18-.36.36-.54.36-.9v-24Z"/><path class="cls-1" d="M1374.68,1255.67a135.17,135.17,0,1,1-93,233.3c-40,14.81-75.54,21.11-107.39,21.11-70.36-.74-120.72-33-155.53-82.95-33-46.66-51.85-109.25-61.1-174.42-13-91.84-7.41-190.72,4.07-259.23a316.41,316.41,0,0,1-184-84.06c-55.54-52.22-92.57-124.06-99.24-204.79a29,29,0,0,1-1.11-8.15V677.59h0v-284a70.94,70.94,0,0,1,3.7-97c12.59-13,30.74-20.74,50.37-20.74a70.8,70.8,0,0,1,50.36,20.74,71.52,71.52,0,0,1,0,100.73A71.12,71.12,0,0,1,732.93,418V677.59h0v13.33c.37,1.49.37,2.6.74,3.71a258.28,258.28,0,0,0,82.21,174.42,261.92,261.92,0,0,0,440.3-172.57,24.64,24.64,0,0,1,.37-5.56V678.33h0V418a71.06,71.06,0,1,1,55.55-24.45V678.33h0v18.15a29,29,0,0,1-1.11,8.15,317.88,317.88,0,0,1-293.29,290c-11.48,63.7-17.78,160.72-5.19,250.34,8.15,57.4,24.07,111.47,51.48,150.35,25.18,35.92,61.1,58.88,110.35,59.25,22.22.37,47-3.7,75.17-13a136.22,136.22,0,0,1-10-50.73,135.27,135.27,0,0,1,135.16-135.17ZM742.56,335.78a15.71,15.71,0,0,0-11.11-4.44c-4.45,0-8.52,1.48-11.11,4.44a15.21,15.21,0,0,0,0,22.22,15.93,15.93,0,0,0,11.11,4.45A17.44,17.44,0,0,0,742.56,358a16.12,16.12,0,0,0,0-22.22Zm527,0A15.71,15.71,0,0,0,1247.29,358a15.71,15.71,0,0,0,22.22-22.22Zm36.66,1095.42a27.16,27.16,0,0,1,11.48,13.33,4.92,4.92,0,0,1,1.11,3,79.63,79.63,0,0,0,135.54-56.66,79.62,79.62,0,1,0-148.13,40.36Z"/></svg>