<svg id="Layer_1" data-name="Layer 1" xmlns="http://www.w3.org/2000/svg" viewBox="0 0 1876.22 1892.39"><defs><style>.cls-1{fill:#1fd14a;}</style></defs><title>Artboard 2 copy 3</title><path class="cls-1" d="M1331,635.57a78.61,78.61,0,0,0-59.1-26.56H409.42a79.17,79.17,0,0,0-78.59,88.32l77,664.77a79.2,79.2,0,0,0,78.59,70H971.25v-33.2H486.46a46,46,0,0,1-45.61-40.51l-77-665a46.53,46.53,0,0,1,11.29-35.86,46,46,0,0,1,34.31-15.28h862.45a46,46,0,0,1,34.31,15.28,46.53,46.53,0,0,1,11.29,35.86l-58.22,502.28h33.43l57.77-498.3A78.8,78.8,0,0,0,1331,635.57Z"/><path class="cls-1" d="M1125.15,642.16h-569V438.76a86.33,86.33,0,0,1,86.23-86.24H1038.9a86.34,86.34,0,0,1,86.25,86.24ZM589.33,609H1092V438.76a53.1,53.1,0,0,0-53-53H642.36a53.08,53.08,0,0,0-53,53Z"/><path class="cls-1" d="M971.24,1115.4,781.91,1271.6c-62.21,50.72-152.82,41.93-203.53-19.6a143.31,143.31,0,0,1-33.14-91.29A145.63,145.63,0,0,1,598,1048.46L789.35,890.91Z"/><path class="cls-1" d="M927.54,1146.37,749.11,926.15,926.46,780.26a141.82,141.82,0,1,1,180.4,218.88ZM806.81,932l126.92,156.67,143.73-118A100.91,100.91,0,0,0,949.07,815Z"/><path class="cls-1" d="M1131.7,1405.7c-62.53,0-125.82-13.79-125.82-40.16s63.29-40.15,125.82-40.15,125.82,13.79,125.82,40.15S1194.23,1405.7,1131.7,1405.7Zm0-67.63c-69.07,0-113.14,16.27-113.14,27.47S1062.63,1393,1131.7,1393s113.14-16.27,113.14-27.48S1200.76,1338.07,1131.7,1338.07Z"/><path class="cls-1" d="M1131.73,1449.27c-62.55,0-125.87-13.79-125.87-40.15v-49.88h251.66v49.88C1257.52,1435.48,1194.24,1449.27,1131.73,1449.27Zm-113.19-77.35v37.2c0,11.2,44.09,27.47,113.19,27.47s113.11-16.27,113.11-27.47v-37.2Z"/><path class="cls-1" d="M1390.77,1405.7c-62.53,0-125.82-13.79-125.82-40.16s63.29-40.15,125.82-40.15,125.82,13.79,125.82,40.15S1453.29,1405.7,1390.77,1405.7Zm0-67.63c-69.07,0-113.14,16.27-113.14,27.47S1321.7,1393,1390.77,1393s113.14-16.27,113.14-27.48S1459.83,1338.07,1390.77,1338.07Z"/><path class="cls-1" d="M1390.8,1449.27c-62.55,0-125.87-13.79-125.87-40.15v-49.88h251.66v49.88C1516.59,1435.48,1453.31,1449.27,1390.8,1449.27Zm-113.19-77.35v37.2c0,11.2,44.09,27.47,113.19,27.47s113.11-16.27,113.11-27.47v-37.2Z"/><path class="cls-1" d="M1251.33,1300c-62.52,0-125.82-13.79-125.82-40.16s63.3-40.15,125.82-40.15,125.82,13.79,125.82,40.15S1313.86,1300,1251.33,1300Zm0-67.63c-69.06,0-113.14,16.27-113.14,27.47s44.08,27.48,113.14,27.48,113.14-16.27,113.14-27.48S1320.4,1232.32,1251.33,1232.32Z"/><path class="cls-1" d="M1251.37,1343.53c-62.56,0-125.88-13.8-125.88-40.16V1253.5h251.66v49.87C1377.15,1329.73,1313.88,1343.53,1251.37,1343.53Zm-113.2-77.35v37.19c0,11.2,44.1,27.47,113.2,27.47s113.1-16.27,113.1-27.47v-37.19Z"/></svg>