<svg id="Layer_1" data-name="Layer 1" xmlns="http://www.w3.org/2000/svg" viewBox="0 0 1876.22 1892.39"><defs><style>.cls-1{fill:#1fd14a;}</style></defs><title>Artboard 2 copy 2</title><path class="cls-1" d="M1267.18,1603.46H553.77a114.51,114.51,0,0,1-114.38-114.39V521.23A114.51,114.51,0,0,1,553.77,406.86h713.41a114.51,114.51,0,0,1,114.39,114.37v967.84A114.51,114.51,0,0,1,1267.18,1603.46ZM553.77,446.08a75.23,75.23,0,0,0-75.16,75.15v967.84a75.25,75.25,0,0,0,75.16,75.17h713.41a75.25,75.25,0,0,0,75.17-75.17V521.23a75.24,75.24,0,0,0-75.17-75.15Z"/><path class="cls-1" d="M1199.1,1506.17H621.85a96.5,96.5,0,0,1-96.4-96.4v-868a97.55,97.55,0,0,1,97.45-97.45h576.2a96.51,96.51,0,0,1,96.41,96.4v869.09A96.51,96.51,0,0,1,1199.1,1506.17ZM622.9,483.49a58.31,58.31,0,0,0-58.24,58.24v868A57.25,57.25,0,0,0,621.85,1467H1199.1a57.25,57.25,0,0,0,57.19-57.19V540.68a57.25,57.25,0,0,0-57.19-57.19Z"/><path class="cls-1" d="M1176.88,360.91H978.58V323.2a73.26,73.26,0,0,0-146.52,0v37.71H643.79a16.23,16.23,0,0,0-16.17,16.32v114a16.23,16.23,0,0,0,16.17,16.31h533.09a16.35,16.35,0,0,0,16.31-16.31v-114A16.35,16.35,0,0,0,1176.88,360.91ZM907.49,342.36a28.14,28.14,0,1,1,28.14-28.14A28.08,28.08,0,0,1,907.49,342.36Z"/><rect class="cls-1" x="935.63" y="606.06" width="277.02" height="24.94"/><rect class="cls-1" x="935.63" y="729.48" width="277.02" height="24.94"/><rect class="cls-1" x="935.63" y="852.9" width="277.02" height="24.94"/><rect class="cls-1" x="935.63" y="976.32" width="277.02" height="24.94"/><rect class="cls-1" x="627.72" y="1099.74" width="584.93" height="24.94"/><rect class="cls-1" x="627.72" y="1223.17" width="584.93" height="24.94"/><rect class="cls-1" x="606.52" y="606.06" width="272.98" height="395.21"/></svg>